<?xml version="1.0" encoding="UTF-8" standalone="no"?>
<svg
   viewBox="0 0 24 24"
   version="1.1"
   id="svg1"
   sodipodi:docname="toggle-switch-variant-auto.svg"
   inkscape:version="1.3.2 (091e20e, 2023-11-25, custom)"
   xmlns:inkscape="http://www.inkscape.org/namespaces/inkscape"
   xmlns:sodipodi="http://sodipodi.sourceforge.net/DTD/sodipodi-0.dtd"
   xmlns="http://www.w3.org/2000/svg"
   xmlns:svg="http://www.w3.org/2000/svg">
  <defs
     id="defs1" />
  <sodipodi:namedview
     id="namedview1"
     pagecolor="#ffffff"
     bordercolor="#000000"
     borderopacity="0.25"
     inkscape:showpageshadow="2"
     inkscape:pageopacity="0.0"
     inkscape:pagecheckerboard="0"
     inkscape:deskcolor="#d1d1d1"
     inkscape:zoom="34.208333"
     inkscape:cx="11.985384"
     inkscape:cy="12"
     inkscape:window-width="1920"
     inkscape:window-height="1017"
     inkscape:window-x="-8"
     inkscape:window-y="-8"
     inkscape:window-maximized="1"
     inkscape:current-layer="svg1" />
  <path
     d="M 5.6,1.6 C 6,1.2 6.5,1 7,1 h 10 c 0.5,0 1,0.2 1.4,0.6 C 18.8,2 19,2.5 19,3 v 18 c 0,0.5 -0.2,1 -0.6,1.4 C 18,22.8 17.5,23 17,23 H 7 C 6.5,23 6,22.8 5.6,22.4 5.2,22 5,21.5 5,21 V 3 C 5,2.5 5.2,2 5.6,1.6 M 8,3 C 7.4,3 7,3.4 7,4 v 10 c 0,0.6 0.4,1 1,1 h 8 c 0.6,0 1,-0.4 1,-1 V 4 C 17,3.4 16.6,3 16,3 H 8 m 0,8 c 0,-0.6 0.4,-1 1,-1 h 6 c 0.6,0 1,0.4 1,1 v 2 c 0,0.6 -0.4,1 -1,1 H 9 C 8.4,14 8,13.6 8,13 Z"
     id="path1"
     sodipodi:nodetypes="csssssssssssccssssssscsssssssss" />
</svg>
