<?xml version="1.0" encoding="UTF-8" standalone="no"?>
<svg
   viewBox="0 0 80 80"
   version="1.1"
   id="svg1"
   sodipodi:docname="logo-clear.svg"
   inkscape:version="1.3.2 (091e20e, 2023-11-25, custom)"
   xmlns:inkscape="http://www.inkscape.org/namespaces/inkscape"
   xmlns:sodipodi="http://sodipodi.sourceforge.net/DTD/sodipodi-0.dtd"
   xmlns="http://www.w3.org/2000/svg"
   xmlns:svg="http://www.w3.org/2000/svg">
  <defs
     id="defs1">
    <filter
       style="color-interpolation-filters:sRGB;"
       inkscape:label="Colorize"
       id="filter3"
       x="0"
       y="0"
       width="1"
       height="1">
      <feComposite
         in2="SourceGraphic"
         operator="arithmetic"
         k1="0"
         k2="0"
         result="composite1"
         id="feComposite2" />
      <feColorMatrix
         in="composite1"
         values="1"
         type="saturate"
         result="colormatrix1"
         id="feColorMatrix2" />
      <feFlood
         flood-opacity="1"
         flood-color="rgb(255,0,0)"
         result="flood1"
         id="feFlood2" />
      <feBlend
         in="flood1"
         in2="colormatrix1"
         mode="normal"
         result="blend1"
         id="feBlend2" />
      <feBlend
         in2="blend1"
         mode="normal"
         result="blend2"
         id="feBlend3" />
      <feColorMatrix
         in="blend2"
         values="1"
         type="saturate"
         result="colormatrix2"
         id="feColorMatrix3" />
      <feComposite
         in="colormatrix2"
         in2="SourceGraphic"
         operator="in"
         k2="1"
         result="composite2"
         id="feComposite3" />
    </filter>
  </defs>
  <sodipodi:namedview
     id="namedview1"
     pagecolor="#ffffff"
     bordercolor="#000000"
     borderopacity="0.25"
     inkscape:showpageshadow="2"
     inkscape:pageopacity="0.0"
     inkscape:pagecheckerboard="0"
     inkscape:deskcolor="#d1d1d1"
     inkscape:zoom="5.6568543"
     inkscape:cx="37.565048"
     inkscape:cy="44.90128"
     inkscape:window-width="1350"
     inkscape:window-height="1040"
     inkscape:window-x="39"
     inkscape:window-y="8"
     inkscape:window-maximized="0"
     inkscape:current-layer="svg1" />
  <path
     style="line-height:normal;text-indent:0;text-align:start;text-decoration-line:none;text-decoration-style:solid;text-decoration-color:#000000;text-transform:none;isolation:auto;mix-blend-mode:normal;stroke-width:1.21105;filter:url(#filter3)"
     d="M 30.869847,0 10.875762,11.138312 0,31.288509 1.6959375,54.057124 15.433741,72.218083 36.844657,79.997634 59.130744,74.928744 75.214949,58.624565 80,36.260422 71.960263,14.929927 71.671692,14.717047 53.643192,1.4120987 Z m 0.560583,2.4623027 17.302347,1.0714917 -0.201052,0.2672822 0.305127,1.0407428 1.017089,0.3784519 0.411566,-0.1206324 0.10644,-0.0544 0.650463,-0.8680729 -0.149016,-0.5109114 1.906451,0.1182709 1.537462,1.1353557 -0.14665,0.068594 -0.219976,1.0620305 0.179764,0.3879137 0.07096,0.099343 0.955592,0.51091 0.983974,-0.4588726 0.05914,-0.2814737 13.7449,10.1448749 7.538289,19.996452 -3.479392,16.268702 -0.07805,-0.104078 -1.08332,0.0047 -0.648098,0.870439 0.0024,0.428123 0.02129,0.118271 0.652829,0.868075 0.664657,-0.0024 -0.539295,2.523802 -15.093133,15.298917 -1.241796,0.281474 0.07569,-0.260186 -0.655196,-0.86571 -0.4092,-0.11827 -0.120631,-0.01187 -1.014724,0.383183 -0.302761,1.040743 0.248359,0.328779 -15.977766,3.633138 0.0615,-0.101703 0.04494,-0.113535 -0.106438,-1.078588 -0.929574,-0.562948 -1.005263,0.409201 -0.219974,0.36426 -0.04494,0.113535 0.106439,1.078589 0.08279,0.04968 -12.455798,-4.527232 0.115897,-0.04494 0.28857,-1.045473 -0.664656,-0.856248 -0.411565,-0.115897 -0.120633,-0.0095 -1.009994,0.392644 -0.255455,0.931938 -4.068358,-1.478329 v -0.0024 L 17.349698,69.611334 16.431953,69.523808 6.8784076,56.892975 7.5146803,56.020172 7.1929962,54.981794 6.8476591,54.73107 6.7388539,54.679028 5.6531705,54.693218 5.4379252,54.988883 4.058941,53.165218 4.0163647,52.602271 5.0665682,52.353913 5.3409464,52.027497 5.400079,51.921058 5.4592117,50.837738 4.6266174,50.142334 3.8484259,50.326828 2.6917943,34.791417 3.543311,34.294699 3.6686737,33.216112 3.453373,32.847259 3.3753175,32.755015 2.5119742,32.390756 2.4693979,31.813617 12.07025,14.028743 l -0.0024,0.565312 0.255456,0.340608 0.08752,0.08279 1.040742,0.309858 0.87044,-0.6481 0.0024,-1.083318 -0.255455,-0.342972 -0.0875,-0.08279 -1.040743,-0.309858 -0.402106,0.300397 0.134822,-0.250725 z m 2.410265,0.9603215 -0.702501,0.8278631 0.243629,1.0573002 0.326414,0.2767433 0.104077,0.059136 1.083319,0.066233 L 35.598134,4.882037 35.354505,3.8247369 35.028091,3.5503592 34.924013,3.4888612 Z m 11.41742,1.5563836 -0.4092,0.1206323 -0.1088,0.0544 -0.650465,0.868074 0.307492,1.0407428 1.01709,0.3784519 0.4092,-0.1206322 0.108801,-0.0544 0.650464,-0.8704393 -0.307492,-1.0407427 z m -5.269942,1.0998757 a 2.4220921,2.4220921 0 0 0 -2.422092,2.4220921 2.4220921,2.4220921 0 0 0 2.422092,2.4220924 2.4220921,2.4220921 0 0 0 2.422091,-2.4220924 2.4220921,2.4220921 0 0 0 -2.422091,-2.4220921 z m -6.909111,1.9348351 -0.428125,0.00242 -0.11827,0.02129 -0.868075,0.6528289 0.0047,1.0833182 0.87044,0.6481003 0.425758,-0.0024 0.120633,-0.02129 0.865709,-0.6504636 -0.0024,-1.0856846 z m 24.937614,0.5724081 -0.983975,0.4588739 -0.219976,1.0620314 0.182131,0.387911 0.06859,0.09935 0.957956,0.51091 0.98161,-0.458873 0.219974,-1.0620316 -0.179763,-0.3879126 -0.07096,-0.099343 z m -29.824374,0.3169538 -0.42576,0.00242 -0.11827,0.02129 -0.868074,0.6528302 0.0024,1.0856833 0.872804,0.645734 h 0.425707 l 0.118271,-0.02365 0.868074,-0.650463 -0.0024,-1.0857439 z m -5.310154,0.8917271 -0.120633,0.02129 -0.865709,0.6528294 0.0024,1.085684 0.870438,0.645733 h 0.428125 l 0.11827,-0.02365 0.868074,-0.650464 -0.0024,-1.085684 -0.872805,-0.6457339 z m -4.884395,0.8893624 -0.120632,0.02129 -0.868074,0.65283 0.0047,1.085683 0.870439,0.645733 h 0.428122 l 0.118271,-0.02129 0.868074,-0.652828 -0.0047,-1.085684 -0.870439,-0.645734 z m 29.921353,0.577139 -1.083318,0.05205 -0.607889,0.898823 0.357164,1.024184 0.354798,0.238899 0.111174,0.04968 1.083318,-0.05204 0.605523,-0.901189 -0.357163,-1.024185 -0.352433,-0.238898 z m -12.084443,0.882266 -0.352433,0.241263 -0.08752,0.08514 -0.347702,1.02655 0.612619,0.896457 1.083317,0.04494 0.352435,-0.241263 0.08752,-0.08515 0.350067,-1.02655 -0.614983,-0.896459 z m 25.044055,0.499083 -0.98161,0.458873 -0.219976,1.062031 0.179765,0.387914 0.07096,0.09934 0.955591,0.51091 0.983975,-0.458871 0.219976,-1.062032 -0.182131,-0.387914 -0.06859,-0.09933 z m -8.418189,0.626811 -1.085684,0.05205 -0.605523,0.898823 0.357164,1.024184 0.354798,0.238899 0.1088,0.04968 1.085683,-0.05204 0.605524,-0.901189 -0.357163,-1.024185 -0.352435,-0.238898 z m -9.794808,1.606056 -1.078589,0.1088 -0.560581,0.929572 0.04258,0.423393 0.0331,0.11827 0.733251,0.799481 1.080953,-0.1088 0.558216,-0.929573 -0.04258,-0.423394 -0.0331,-0.11827 z m 14.336231,0.402104 -1.085684,0.05205 -0.605524,0.898822 0.357164,1.024185 0.352433,0.238899 0.111174,0.04968 1.083319,-0.05204 0.607887,-0.901189 -0.357162,-1.024185 -0.354799,-0.238897 z m -24.705813,0.350069 -0.350069,0.243629 -0.08752,0.08279 -0.350068,1.028916 0.612619,0.894094 1.085684,0.04494 0.352434,-0.241263 0.08515,-0.08514 0.350068,-1.026551 -0.612619,-0.896457 z m 36.232037,0.281473 -0.4092,0.120633 -0.108801,0.0544 -0.650465,0.87044 0.307494,1.040743 1.017088,0.376086 0.409202,-0.120633 0.108801,-0.0544 0.650463,-0.868074 -0.307492,-1.040741 z m -51.96854,0.350069 -0.87044,0.645732 -0.0024,1.085685 0.255454,0.342972 0.08988,0.08279 1.038379,0.309856 0.870439,-0.648098 0.0024,-1.085684 -0.255454,-0.342971 -0.08752,-0.08279 z m 47.649459,0.719058 a 2.4220921,2.4220921 0 0 0 -2.422093,2.422092 2.4220921,2.4220921 0 0 0 2.422093,2.422092 2.4220921,2.4220921 0 0 0 2.422091,-2.422092 2.4220921,2.4220921 0 0 0 -2.422091,-2.422092 z m -52.817692,1.56348 -0.851518,0.669386 -0.113536,0.411566 -0.0095,0.120633 0.399739,1.007628 1.04784,0.283838 0.853882,-0.669385 0.111173,-0.411568 0.01187,-0.120632 -0.402105,-1.009993 z m 17.368576,0.572408 -0.352435,0.241263 -0.08515,0.08515 -0.350068,1.026549 0.612619,0.894093 1.083319,0.04495 0.352433,-0.241264 0.08752,-0.08515 0.350067,-1.026552 -0.614983,-0.896458 z m 15.263438,0.536929 -1.078588,0.1088 -0.560582,0.929572 0.04258,0.425759 0.0331,0.115897 0.733249,0.799479 1.080953,-0.1088 0.558218,-0.929572 -0.04258,-0.423393 -0.0331,-0.115897 z m -23.84247,0.0047 -0.870439,0.648099 -0.0024,1.085683 0.255456,0.342971 0.01187,0.01187 1.040743,0.309857 0.870438,-0.648098 0.0024,-1.085683 -0.255454,-0.342974 -0.01187,-0.01187 z m 5.274674,2.166645 a 2.4220921,2.4220921 0 0 0 -2.422093,2.422092 2.4220921,2.4220921 0 0 0 2.422093,2.422093 2.4220921,2.4220921 0 0 0 2.422092,-2.422093 2.4220921,2.4220921 0 0 0 -2.422092,-2.422092 z m 33.826504,0.432855 -0.380818,0.19159 -0.09697,0.07333 -0.48016,0.972147 0.489621,0.967418 1.069127,0.186861 0.380818,-0.193957 0.09697,-0.07333 0.482525,-0.972148 -0.491987,-0.967417 z m 6.838151,0.913015 -1.078587,0.132458 -0.536929,0.943764 0.05205,0.423392 0.03548,0.115897 0.749808,0.782924 1.078588,-0.132457 0.536928,-0.943766 -0.05204,-0.423393 -0.03549,-0.115897 z m -55.156998,0.319319 -0.853881,0.669386 -0.1111709,0.411567 -0.00946,0.120632 0.3997399,1.009994 1.047839,0.281472 0.853881,-0.669386 0.111174,-0.411567 0.0095,-0.120632 -0.39974,-1.009993 z m 34.4202,0.939033 -1.080953,0.108801 -0.558217,0.929573 0.04258,0.425758 0.03312,0.115898 0.730886,0.799479 1.080952,-0.10644 0.558217,-0.931937 -0.04258,-0.423392 -0.0331,-0.115898 z m 9.936728,0.818403 -0.380818,0.193955 -0.09697,0.07333 -0.482526,0.972148 0.491987,0.967418 1.069127,0.18686 0.380816,-0.193956 0.09698,-0.07333 0.480161,-0.972148 -0.489623,-0.967417 z m -23.802259,0.305127 -1.078588,0.104076 -0.565312,0.927209 0.406835,1.005263 0.36426,0.222339 0.113536,0.04495 1.078587,-0.104077 0.565312,-0.927208 -0.406834,-1.007627 -0.364261,-0.219976 z m 4.631304,1.79055 -1.078588,0.104078 -0.565313,0.927207 0.406837,1.007628 0.364259,0.219976 0.113537,0.04494 1.078588,-0.104077 0.565313,-0.927207 -0.406838,-1.005263 -0.364259,-0.22234 z m 31.435161,0.572409 -1.076222,0.132458 -0.539294,0.941399 0.05204,0.423393 0.03549,0.115896 0.752172,0.785289 1.076223,-0.134824 0.539295,-0.941398 -0.05205,-0.423394 -0.03549,-0.115897 z m -16.22849,0.324048 -0.378452,0.193958 -0.09697,0.07333 -0.482526,0.972149 0.491987,0.967419 1.069127,0.18686 0.380817,-0.193957 0.09698,-0.07333 0.480161,-0.972148 -0.491988,-0.967417 z m -29.547631,0.04968 -1.083319,0.06623 -0.326414,0.274379 -0.07805,0.09462 -0.243629,1.057299 0.700137,0.827863 1.083318,-0.06385 0.326414,-0.276743 0.07569,-0.09224 0.245994,-1.057298 z m -11.275502,0.146649 -0.8515169,0.669387 -0.1135356,0.413932 -0.00946,0.120632 0.3997396,1.007629 1.0478379,0.283839 0.853883,-0.671752 0.11117,-0.411567 0.01183,-0.120632 -0.402105,-1.007629 z m 30.247769,0.700136 -1.080954,0.101704 -0.562947,0.927207 0.406835,1.007628 0.364261,0.222341 0.111173,0.04258 1.080953,-0.104077 0.562947,-0.927206 -0.40447,-1.005265 -0.36426,-0.222338 z m -14.937025,0.151381 -0.740346,0.792384 -0.04731,0.425759 0.0071,0.120633 0.548756,0.934301 1.078588,0.120632 0.742712,-0.792383 0.04731,-0.423393 -0.0095,-0.120631 -0.548754,-0.936669 z m 21.410917,1.014719 a 2.4220921,2.4220921 0 0 0 -2.422092,2.422093 2.4220921,2.4220921 0 0 0 2.422092,2.422092 2.4220921,2.4220921 0 0 0 2.422092,-2.422092 2.4220921,2.4220921 0 0 0 -2.422092,-2.422093 z m -28.615695,1.809475 -1.083319,0.06623 -0.326414,0.274379 -0.07805,0.09462 -0.243628,1.057299 0.700136,0.827864 1.083318,-0.06385 0.326416,-0.276743 0.07569,-0.09224 0.245994,-1.057299 z m 50.412159,0.548755 -1.076223,0.132457 -0.539295,0.941399 0.05204,0.423394 0.03549,0.115897 0.752173,0.782922 1.076223,-0.132459 0.539294,-0.941398 -0.0544,-0.423393 -0.03549,-0.115897 z m -58.946248,0.723789 -0.8538821,0.669386 -0.1111704,0.411566 -0.00946,0.120632 0.3997396,1.00763 1.0478389,0.283838 0.853883,-0.669387 0.11117,-0.411565 0.0095,-0.120633 -0.399739,-1.009993 z m 44.356927,0.529833 -1.064395,0.215243 -0.463605,0.98161 0.51091,0.957957 0.385548,0.182129 0.115898,0.03074 1.064395,-0.215244 0.463604,-0.981609 -0.51091,-0.957957 -0.385547,-0.182131 z m -28.289279,0.328779 -0.742712,0.792383 -0.04731,0.423393 0.0095,0.120632 0.548756,0.936669 1.078587,0.120631 0.740346,-0.792384 0.04731,-0.423393 -0.0071,-0.120632 -0.548755,-0.936668 z m 33.081427,0.965052 -1.062032,0.215246 -0.463603,0.981608 0.508544,0.957957 0.385549,0.18213 0.118271,0.0331 1.06203,-0.217609 0.463604,-0.981609 -0.508544,-0.957958 -0.385549,-0.182128 z m -43.78452,0.726154 -1.083319,0.06623 -0.326415,0.274378 -0.07568,0.09462 -0.245994,1.057299 0.700135,0.827863 1.083319,-0.06385 0.326414,-0.276744 0.07569,-0.09224 0.245993,-1.057299 z m 26.933949,0.04731 -0.352434,0.241264 -0.08515,0.08279 -0.352432,1.026552 0.612618,0.896458 1.083319,0.04731 0.352434,-0.241262 0.08752,-0.08514 0.350067,-1.026551 -0.612619,-0.896458 z m 32.45225,0.0544 -0.413932,0.106439 -0.111174,0.04968 -0.678848,0.846787 0.269646,1.050204 1.002898,0.413931 0.413932,-0.10644 0.111173,-0.05204 0.67885,-0.844421 -0.269647,-1.050204 z m -69.2637936,0.08042 -0.9366678,0.54639 -0.1229975,1.078588 0.2152453,0.368992 0.078055,0.09224 0.9981661,0.423392 0.936669,-0.54639 0.1253626,-1.078588 -0.2152452,-0.368991 -0.078055,-0.09224 z m 64.6726986,0.241263 a 2.4220921,2.4220921 0 0 0 -2.422092,2.422093 2.4220921,2.4220921 0 0 0 2.422092,2.422092 2.4220921,2.4220921 0 0 0 2.422091,-2.422092 2.4220921,2.4220921 0 0 0 -2.422091,-2.422093 z m -6.216072,0.144287 -1.064397,0.217608 -0.461238,0.98161 0.508546,0.957958 0.385547,0.182128 0.115897,0.03075 1.064395,-0.215243 0.463604,-0.981611 -0.508544,-0.957956 -0.387913,-0.182131 z m -14.662646,1.539825 -1.080952,0.09933 -0.567678,0.924842 0.03784,0.42576 0.0331,0.115897 0.726155,0.806574 1.080954,-0.09934 0.567678,-0.924841 -0.04022,-0.425759 -0.03074,-0.115897 z m -22.884514,1.156644 -0.742711,0.790017 -0.04731,0.425759 0.0071,0.120632 0.551121,0.936669 1.076223,0.11827 0.742711,-0.790018 0.04731,-0.425759 -0.0072,-0.120633 -0.548755,-0.936668 z m 12.35882,0.262551 -0.352432,0.238898 -0.08515,0.08515 -0.352432,1.026551 0.612619,0.896458 1.083318,0.04731 0.352434,-0.241264 0.08752,-0.08515 0.350066,-1.02655 -0.610253,-0.896458 z M 9.7120217,39.988139 A 2.4220921,2.4220921 0 0 0 7.2899296,42.41023 2.4220921,2.4220921 0 0 0 9.7120217,44.832324 2.4220921,2.4220921 0 0 0 12.134113,42.41023 2.4220921,2.4220921 0 0 0 9.7120217,39.988139 Z m 58.1656913,2.367689 -1.083319,0.05914 -0.328781,0.274378 -0.07805,0.09224 -0.250724,1.054933 0.695406,0.832594 1.085683,-0.05914 0.326415,-0.272013 0.07805,-0.09462 0.250726,-1.054935 z m -17.174621,0.470699 -1.080953,0.09934 -0.567677,0.924842 0.04021,0.42576 0.0331,0.115896 0.726155,0.806575 1.078588,-0.09934 0.567678,-0.924841 -0.03785,-0.425758 -0.0331,-0.115897 z m 21.441666,0.01892 -1.085684,0.0047 -0.645734,0.870438 0.0024,0.425759 0.02128,0.120632 0.652832,0.86571 1.083317,-0.0024 0.648099,-0.87044 -0.0024,-0.428124 -0.02129,-0.118271 z m -36.828101,0.08988 -0.352433,0.241263 -0.08515,0.08515 -0.352434,1.026551 0.61262,0.896458 1.083318,0.04495 0.352434,-0.238898 0.08752,-0.08515 0.350069,-1.026551 -0.610255,-0.896459 z m -21.474779,0.248359 -0.714329,0.818402 0.227072,1.059665 0.321685,0.281474 0.104077,0.06149 1.083318,0.08279 0.711963,-0.816037 -0.227071,-1.062032 -0.321684,-0.281473 -0.104077,-0.0615 z m 12.98563,0.965052 -0.740347,0.792384 -0.04731,0.423392 0.0072,0.120633 0.548756,0.936669 1.078588,0.120633 0.742711,-0.792384 0.04731,-0.423393 -0.0095,-0.120633 -0.548754,-0.936669 z m -8.728047,1.589498 -0.714326,0.818402 0.227071,1.059666 0.321682,0.281472 0.104077,0.0615 1.083319,0.08279 0.711962,-0.816037 -0.22707,-1.062032 -0.321684,-0.281472 -0.104077,-0.0615 z m -11.008218,0.09224 -1.0573002,0.250724 -0.2720131,0.32878 -0.061498,0.104077 -0.059133,1.083318 0.8325942,0.695406 1.0573001,-0.248359 0.2720118,-0.32878 0.061498,-0.104078 0.059135,-1.083318 z m 57.595647,0.331145 -1.083319,0.05914 -0.326414,0.272012 -0.07805,0.09462 -0.250725,1.054935 0.695406,0.832594 1.083318,-0.05914 0.328781,-0.274377 0.07805,-0.09224 0.248359,-1.054934 z m -32.911123,0.253091 -0.354799,0.241262 -0.08514,0.08515 -0.352432,1.02655 0.612617,0.896458 1.08332,0.04495 0.352432,-0.241263 0.08752,-0.08515 0.352434,-1.026552 -0.61262,-0.894092 z m -19.972799,1.140086 -1.069126,0.182131 -0.494353,0.965051 0.07096,0.421028 0.04022,0.113535 0.785287,0.749808 1.071492,-0.182129 0.494353,-0.965053 -0.07096,-0.421027 -0.04022,-0.113536 z m 40.219976,0.05914 -1.080954,0.09933 -0.567677,0.924844 0.04021,0.425758 0.03074,0.115898 0.726155,0.806574 1.080953,-0.09934 0.567677,-0.924842 -0.04022,-0.425758 -0.03074,-0.115897 z m 21.013541,0.115897 -1.085684,0.0047 -0.645733,0.87044 v 0.428124 l 0.02129,0.118271 0.65283,0.868074 1.085684,-0.0047 0.645732,-0.870439 v -0.428123 l -0.02129,-0.11827 z m -50.67944,0.562948 -0.714329,0.818403 0.229438,1.059665 0.321685,0.281473 0.101703,0.0615 1.083319,0.08279 0.714327,-0.816037 -0.229435,-1.062031 -0.321684,-0.281475 -0.104079,-0.0615 z m 5.520668,1.383712 a 2.4220921,2.4220921 0 0 0 -2.422092,2.422092 2.4220921,2.4220921 0 0 0 2.422092,2.422091 2.4220921,2.4220921 0 0 0 2.422091,-2.422091 2.4220921,2.4220921 0 0 0 -2.422091,-2.422092 z m 33.620721,0.290933 -1.083319,0.05914 -0.32878,0.272013 -0.07805,0.09462 -0.250722,1.054934 0.69777,0.832594 1.083317,-0.05914 0.326415,-0.274378 0.07805,-0.09224 0.250724,-1.054935 z m -48.013721,2.261252 -1.071491,0.179764 -0.494353,0.967419 0.07096,0.421027 0.04022,0.113536 0.787653,0.747442 1.069127,-0.179765 0.494353,-0.967418 -0.07096,-0.421028 -0.04021,-0.113535 z m 39.855717,0.172668 -1.080955,0.09934 -0.565311,0.924841 0.03785,0.423393 0.0331,0.118271 0.726155,0.806575 1.080953,-0.09934 0.565313,-0.924842 -0.03784,-0.425758 -0.03312,-0.11827 z m -19.225357,0.316954 -1.066761,0.205784 -0.470701,0.976878 0.499085,0.962687 0.383182,0.186861 0.118271,0.0331 1.064397,-0.208149 0.473064,-0.97688 -0.499084,-0.962687 -0.385548,-0.184496 z m 24.192537,1.052569 -1.083319,0.05914 -0.326413,0.274377 -0.07805,0.09224 -0.250726,1.057301 0.695406,0.832594 1.083318,-0.05914 0.328781,-0.274378 0.07805,-0.09224 0.250724,-1.054934 z m -19.412216,0.286206 -1.064396,0.208146 -0.473066,0.976879 0.499083,0.962688 0.385549,0.184495 0.115898,0.03311 1.064395,-0.205782 0.473064,-0.97688 -0.499082,-0.962687 -0.385548,-0.186861 z m -15.708119,0.05914 -0.385549,0.18213 -0.09934,0.07096 -0.506179,0.960322 0.465969,0.979244 1.064397,0.215246 0.385547,-0.184496 0.09697,-0.06859 0.508547,-0.960321 -0.465971,-0.98161 z m 20.488439,1.282005 -1.064395,0.205783 -0.473066,0.97688 0.499084,0.962687 0.385547,0.186861 0.115897,0.0331 1.066761,-0.205783 0.470701,-0.976878 -0.499085,-0.965052 -0.383182,-0.184495 z m -12.933594,1.088047 -0.995801,0.432855 -0.245994,1.0573 0.170303,0.390278 0.06623,0.101704 0.943764,0.536928 0.995802,-0.43522 0.245994,-1.057299 -0.170303,-0.390278 -0.06859,-0.09934 z m 39.247827,0.184496 -0.120632,0.0072 -0.931937,0.553487 -0.115898,1.078587 0.79475,0.740346 0.423393,0.04495 0.120632,-0.0095 0.934304,-0.553485 0.115897,-1.078588 -0.794749,-0.737982 z m -21.531547,0.06859 -1.066762,0.205785 -0.473065,0.976879 0.501449,0.962687 0.383182,0.18686 0.115898,0.03074 1.066762,-0.205785 0.473063,-0.976878 -0.501447,-0.962687 -0.383183,-0.186861 z m -37.251493,0.10644 -1.085684,0.01419 -0.6386375,0.877535 0.3216841,1.036012 0.3453364,0.250724 0.108806,0.0544 1.085684,-0.01419 0.638637,-0.8799 -0.321684,-1.036012 -0.345336,-0.250724 z m 43.313818,0.09697 a 2.4220921,2.4220921 0 0 0 -2.422091,2.422093 2.4220921,2.4220921 0 0 0 2.422091,2.422092 2.4220921,2.4220921 0 0 0 2.422093,-2.422092 2.4220921,2.4220921 0 0 0 -2.422093,-2.422093 z m -35.373424,0.05914 -0.385549,0.182131 -0.09933,0.07096 -0.50618,0.960322 0.46597,0.979245 1.062029,0.215244 0.385549,-0.184495 0.09934,-0.06859 0.506179,-0.960323 -0.463602,-0.979246 z m 45.889658,0.01892 -0.120633,0.0072 -0.931937,0.553486 -0.115897,1.078588 0.794748,0.737982 0.423393,0.04731 0.120633,-0.0095 0.934302,-0.553486 0.115897,-1.078587 -0.79475,-0.737983 z m -4.95299,0.347702 -0.120632,0.0095 -0.931939,0.553486 -0.115897,1.078587 0.794749,0.737981 0.423394,0.04731 0.120631,-0.0095 0.9343,-0.553491 0.115897,-1.078587 -0.794748,-0.737981 z m -44.316717,0.785324 a 2.4220921,2.4220921 0 0 0 -2.422092,2.422091 2.4220921,2.4220921 0 0 0 2.422092,2.422093 2.4220921,2.4220921 0 0 0 2.422091,-2.422093 2.4220921,2.4220921 0 0 0 -2.422091,-2.422091 z m 17.732836,2.459937 -0.995802,0.43522 -0.245993,1.054934 0.170302,0.392644 0.06859,0.09934 0.9414,0.536929 0.9958,-0.432854 0.245995,-1.0573 -0.170304,-0.390278 -0.06623,-0.101704 z m -13.018745,1.407367 -1.085684,0.0544 -0.603157,0.901189 0.359528,1.021821 0.352434,0.238898 0.111175,0.04968 1.08332,-0.0544 0.605522,-0.901188 -0.359529,-1.024184 -0.354799,-0.238898 z m 28.596771,0.68831 -0.373721,0.205783 -0.09462,0.07805 -0.442318,0.988705 0.527468,0.948494 1.073857,0.146651 0.373721,-0.208149 0.09462,-0.07569 0.442316,-0.991071 -0.527469,-0.948496 z m 7.334872,0.801844 -1.080954,0.09462 -0.570043,0.924843 0.03784,0.423392 0.03075,0.118271 0.72379,0.80894 1.080953,-0.09698 0.570044,-0.922478 -0.03785,-0.425756 -0.03074,-0.115897 z m -31.387855,0.508546 -1.083319,0.0544 -0.605522,0.901188 0.359529,1.024186 0.354799,0.236533 0.111174,0.04968 1.083318,-0.0544 0.605524,-0.901189 -0.35953,-1.024185 -0.354799,-0.238898 z m -9.153804,0.536929 -0.730886,0.80421 -0.04258,0.423392 0.01187,0.120633 0.560581,0.929572 1.080954,0.104077 0.730886,-0.801844 0.04021,-0.425759 -0.0095,-0.120633 -0.562996,-0.927209 z m 20.38673,0.186859 -0.993436,0.432855 -0.24836,1.0573 0.170303,0.390279 0.06859,0.101703 0.9414,0.536929 0.9958,-0.43522 0.245994,-1.0573 -0.170303,-0.390278 -0.06623,-0.09934 z m 8.97404,1.104609 -0.373721,0.208148 -0.09462,0.07805 -0.442315,0.988704 0.527468,0.948495 1.073857,0.144287 0.373721,-0.205785 0.09462,-0.07805 0.444681,-0.988706 -0.527469,-0.948495 z m -15.660811,0.170303 -1.08332,0.0544 -0.605523,0.901189 0.359529,1.024185 0.354799,0.236533 0.1088,0.04968 1.085684,-0.0544 0.603157,-0.901188 -0.359528,-1.024185 -0.352434,-0.238898 z m 4.543787,1.998697 -1.083319,0.0544 -0.605524,0.901189 0.35953,1.024185 0.3548,0.236533 0.111173,0.04968 1.083319,-0.0544 0.605523,-0.901189 -0.359529,-1.024185 -0.354799,-0.236531 z m 23.598841,0.286205 -1.080953,0.09462 -0.570043,0.922477 0.03785,0.42576 0.03074,0.118271 0.723789,0.808941 1.080952,-0.09699 0.570044,-0.922476 -0.03549,-0.425758 -0.03311,-0.115897 z m -17.725741,0.749808 a 2.4220921,2.4220921 0 0 0 -2.422092,2.422092 2.4220921,2.4220921 0 0 0 2.422092,2.422092 2.4220921,2.4220921 0 0 0 2.422091,-2.422092 2.4220921,2.4220921 0 0 0 -2.422091,-2.422092 z m 5.686239,1.662823 -1.014723,0.380817 -0.300397,1.043108 0.652832,0.865709 0.411564,0.118271 0.120633,0.01187 1.014723,-0.380817 0.300396,-1.043108 -0.652828,-0.865708 -0.411568,-0.11827 z m -17.484477,0.437585 -1.009994,0.395009 -0.288569,1.045474 0.664657,0.858612 0.411566,0.113535 0.120632,0.0095 1.009993,-0.392645 0.288571,-1.045473 -0.664656,-0.858613 -0.411567,-0.113535 z m 22.423276,0.07805 -1.014725,0.383181 -0.302761,1.043108 0.655194,0.86571 0.411566,0.118271 0.118271,0.01187 1.01709,-0.383182 0.300396,-1.040742 -0.655193,-0.865709 -0.409202,-0.118273 z m -17.477382,0.380817 -1.01236,0.395009 -0.288569,1.045473 0.664656,0.858614 0.411567,0.113536 0.120632,0.01187 1.009994,-0.395009 0.290935,-1.045473 -0.664656,-0.858613 -0.411566,-0.113534 z"
     id="path1" />
</svg>
