<?xml version="1.0" encoding="UTF-8" standalone="no"?>
<svg
   height="24"
   width="24"
   version="1.1"
   id="svg2"
   sodipodi:docname="map-marker-orange.svg"
   inkscape:version="1.3.2 (091e20e, 2023-11-25, custom)"
   xmlns:inkscape="http://www.inkscape.org/namespaces/inkscape"
   xmlns:sodipodi="http://sodipodi.sourceforge.net/DTD/sodipodi-0.dtd"
   xmlns="http://www.w3.org/2000/svg"
   xmlns:svg="http://www.w3.org/2000/svg">
  <defs
     id="defs2">
    <filter
       style="color-interpolation-filters:sRGB;"
       inkscape:label="Colorize"
       id="filter65"
       x="0"
       y="0"
       width="1"
       height="1">
      <feComposite
         in2="SourceGraphic"
         operator="arithmetic"
         k1="0"
         k2="0"
         result="composite1"
         id="feComposite64" />
      <feColorMatrix
         in="composite1"
         values="1"
         type="saturate"
         result="colormatrix1"
         id="feColorMatrix64" />
      <feFlood
         flood-opacity="1"
         flood-color="rgb(255,120,0)"
         result="flood1"
         id="feFlood64" />
      <feBlend
         in="flood1"
         in2="colormatrix1"
         mode="multiply"
         result="blend1"
         id="feBlend64" />
      <feBlend
         in2="blend1"
         mode="screen"
         result="blend2"
         id="feBlend65" />
      <feColorMatrix
         in="blend2"
         values="1"
         type="saturate"
         result="colormatrix2"
         id="feColorMatrix65" />
      <feComposite
         in="colormatrix2"
         in2="SourceGraphic"
         operator="in"
         k2="1"
         result="composite2"
         id="feComposite65" />
    </filter>
    <filter
       style="color-interpolation-filters:sRGB;"
       inkscape:label="Colorize"
       id="filter67"
       x="0"
       y="0"
       width="1"
       height="1">
      <feComposite
         in2="SourceGraphic"
         operator="arithmetic"
         k1="0"
         k2="0"
         result="composite1"
         id="feComposite66" />
      <feColorMatrix
         in="composite1"
         values="1"
         type="saturate"
         result="colormatrix1"
         id="feColorMatrix66" />
      <feFlood
         flood-opacity="1"
         flood-color="rgb(255,96,0)"
         result="flood1"
         id="feFlood66" />
      <feBlend
         in="flood1"
         in2="colormatrix1"
         mode="multiply"
         result="blend1"
         id="feBlend66" />
      <feBlend
         in2="blend1"
         mode="screen"
         result="blend2"
         id="feBlend67" />
      <feColorMatrix
         in="blend2"
         values="1"
         type="saturate"
         result="colormatrix2"
         id="feColorMatrix67" />
      <feComposite
         in="colormatrix2"
         in2="SourceGraphic"
         operator="in"
         k2="1"
         result="composite2"
         id="feComposite67" />
    </filter>
  </defs>
  <sodipodi:namedview
     id="namedview2"
     pagecolor="#ffffff"
     bordercolor="#000000"
     borderopacity="0.25"
     inkscape:showpageshadow="2"
     inkscape:pageopacity="0.0"
     inkscape:pagecheckerboard="0"
     inkscape:deskcolor="#d1d1d1"
     inkscape:zoom="34.208333"
     inkscape:cx="11.985384"
     inkscape:cy="12"
     inkscape:window-width="1920"
     inkscape:window-height="1017"
     inkscape:window-x="-8"
     inkscape:window-y="-8"
     inkscape:window-maximized="1"
     inkscape:current-layer="g2" />
  <g
     id="g2">
    <path
       d="m12 0c-4.4183 0-8 3.5817-8 8 0 1.421.3816 2.75 1.0312 3.906.1079.192.221.381.3438.563l6.625 11.531 6.625-11.531c.102-.151.19-.311.281-.469l.063-.094c.649-1.156 1.031-2.485 1.031-3.906 0-4.4183-3.582-8-8-8zm0 4c2.209 0 4 1.7909 4 4 0 2.209-1.791 4-4 4-2.2091 0-4-1.791-4-4 0-2.2091 1.7909-4 4-4z"
       fill="#e74c3c"
       id="path1"
       style="filter:url(#filter65)" />
    <path
       d="m12 3c-2.7614 0-5 2.2386-5 5 0 2.761 2.2386 5 5 5 2.761 0 5-2.239 5-5 0-2.7614-2.239-5-5-5zm0 2c1.657 0 3 1.3431 3 3s-1.343 3-3 3-3-1.3431-3-3 1.343-3 3-3z"
       fill="#c0392b"
       id="path2"
       style="filter:url(#filter67)" />
  </g>
</svg>
