<svg xmlns="http://www.w3.org/2000/svg" viewBox="0 0 139 18"><path d="M3.232,3.582C2.789,3.582 2.368,3.934 2.289,4.369L0.013,16.964C-0.066,17.399 0.229,17.751 0.671,17.751L3.087,17.751C3.529,17.751 3.951,17.399 4.03,16.964L4.935,11.951L6.592,17.293C6.672,17.572 6.923,17.751 7.235,17.751L10.434,17.751C10.746,17.751 11.062,17.572 11.243,17.293L14.835,11.925L13.924,16.964C13.844,17.399 14.14,17.751 14.583,17.751L16.998,17.751C17.44,17.751 17.862,17.399 17.941,16.964L20.217,4.369C20.298,3.934 20.002,3.582 19.56,3.582L16.46,3.582C16.147,3.582 15.831,3.761 15.65,4.04L9.76,12.872C9.668,13.013 9.446,12.975 9.397,12.81L6.976,4.04C6.895,3.761 6.645,3.582 6.332,3.582L3.232,3.582Z"/><path d="M20.853,17.751L32.797,17.751C33.063,17.751 33.317,17.538 33.364,17.278L33.863,14.504C33.91,14.242 33.733,14.031 33.467,14.031L25.166,14.031C25.077,14.031 25.019,13.96 25.034,13.873L25.281,12.508C25.296,12.421 25.38,12.35 25.469,12.35L32.146,12.35C32.411,12.35 32.665,12.137 32.712,11.877L33.157,9.421C33.204,9.159 33.027,8.949 32.761,8.949L26.085,8.949C25.996,8.949 25.938,8.877 25.953,8.79L26.216,7.328C26.232,7.241 26.316,7.17 26.405,7.17L34.706,7.17C34.971,7.17 35.226,6.957 35.272,6.695L35.756,4.021C35.804,3.761 35.627,3.548 35.361,3.548L23.417,3.548C22.975,3.548 22.551,3.902 22.473,4.337L20.191,16.962C20.114,17.397 20.409,17.751 20.853,17.751Z"/><path d="M45.291,17.749L45.291,17.751L45.705,17.751C47.783,17.751 49.767,16.095 50.136,14.052L50.375,12.727C50.744,10.685 49.359,9.029 47.28,9.029L40.882,9.029C40.617,9.029 40.44,8.818 40.487,8.556L40.649,7.664C40.696,7.402 40.95,7.191 41.215,7.191L49.87,7.191C50.313,7.191 50.735,6.839 50.814,6.404L51.183,4.368C51.262,3.931 50.966,3.579 50.523,3.579L41.063,3.579C38.985,3.579 37,5.235 36.631,7.278L36.37,8.723C36.001,10.767 37.386,12.422 39.465,12.422L45.863,12.422C46.128,12.422 46.305,12.633 46.258,12.895L46.138,13.565C46.091,13.826 45.837,14.037 45.571,14.037L36.675,14.037C36.233,14.037 35.811,14.389 35.732,14.824L35.346,16.962C35.267,17.397 35.562,17.749 36.005,17.749L45.291,17.749Z"/><path d="M67.068,3.575L64.393,3.575C63.951,3.575 63.529,3.927 63.45,4.361L62.654,8.766C62.639,8.853 62.554,8.923 62.466,8.923L57.282,8.923C57.193,8.923 57.135,8.853 57.15,8.766L57.946,4.361C58.023,3.927 57.73,3.575 57.287,3.575L54.613,3.575C54.17,3.575 53.748,3.927 53.669,4.361L51.392,16.964C51.313,17.399 51.608,17.751 52.05,17.751L54.725,17.751C55.168,17.751 55.589,17.399 55.668,16.964L56.48,12.478C56.495,12.392 56.58,12.32 56.668,12.32L61.852,12.32C61.941,12.32 61.999,12.39 61.984,12.478L61.174,16.964C61.096,17.399 61.391,17.751 61.834,17.751L64.508,17.751C64.951,17.751 65.372,17.399 65.451,16.964L67.729,4.361C67.804,3.927 67.511,3.575 67.068,3.575Z"/><path d="M71.102,17.751L78.96,17.751C79.402,17.751 79.824,17.399 79.903,16.964L80.288,14.824C80.367,14.389 80.072,14.037 79.629,14.037L72.808,14.037C72.542,14.037 72.365,13.826 72.412,13.565L73.48,7.686C73.527,7.426 73.781,7.213 74.045,7.213L80.866,7.213C81.309,7.213 81.73,6.861 81.81,6.427L82.188,4.335C82.267,3.9 81.971,3.548 81.529,3.548L73.691,3.548C71.618,3.548 69.638,5.197 69.265,7.234L68.011,14.046C67.639,16.091 69.022,17.751 71.102,17.751Z"/><path d="M95.833,3.529L87.654,3.529C85.576,3.529 83.592,5.186 83.223,7.228L81.99,14.052C81.621,16.094 83.006,17.751 85.084,17.751L93.263,17.751C95.341,17.751 97.326,16.095 97.695,14.052L98.928,7.228C99.297,5.186 97.911,3.529 95.833,3.529ZM93.488,13.567C93.44,13.828 93.186,14.039 92.921,14.039L86.762,14.039C86.496,14.039 86.319,13.828 86.366,13.567L87.434,7.663C87.481,7.402 87.735,7.191 88,7.191L94.157,7.191C94.423,7.191 94.6,7.402 94.553,7.663L93.488,13.567Z"/><path d="M99.884,17.751L102.557,17.751C102.999,17.751 103.421,17.399 103.5,16.965L103.973,14.348C103.988,14.261 104.073,14.19 104.161,14.19L107.397,14.186C107.557,14.186 107.69,14.265 107.756,14.395L109.281,17.37C109.458,17.722 109.78,17.764 110.751,17.749C111.32,17.756 112.184,17.713 113.577,17.713C114.025,17.713 114.3,17.244 114.079,16.853L112.413,13.953C112.37,13.876 112.417,13.772 112.509,13.727C113.795,13.102 114.814,11.889 115.068,10.487L115.649,7.262C116.02,5.218 114.635,3.562 112.557,3.562L102.448,3.562C102.006,3.562 101.584,3.914 101.505,4.349L99.225,16.964C99.146,17.399 99.442,17.751 99.884,17.751ZM105.255,7.268C105.27,7.181 105.354,7.11 105.443,7.11L110.674,7.11C111.069,7.11 111.331,7.424 111.261,7.812L110.877,9.933C110.806,10.319 110.431,10.634 110.038,10.634L104.806,10.634C104.718,10.634 104.66,10.564 104.675,10.475L105.255,7.268Z"/><path d="M116.642,17.751L128.586,17.751C128.851,17.751 129.105,17.538 129.152,17.278L129.651,14.504C129.698,14.242 129.521,14.031 129.256,14.031L120.955,14.031C120.866,14.031 120.808,13.96 120.823,13.873L121.069,12.508C121.084,12.421 121.169,12.35 121.257,12.35L127.934,12.35C128.2,12.35 128.454,12.137 128.501,11.877L128.945,9.421C128.992,9.159 128.815,8.949 128.55,8.949L121.873,8.949C121.785,8.949 121.726,8.877 121.741,8.79L122.005,7.328C122.02,7.241 122.105,7.17 122.193,7.17L130.495,7.17C130.76,7.17 131.014,6.957 131.061,6.695L131.545,4.021C131.592,3.761 131.415,3.548 131.15,3.548L119.206,3.548C118.763,3.548 118.34,3.902 118.261,4.337L115.98,16.962C115.902,17.397 116.198,17.751 116.642,17.751Z"/><path d="M134.674,0L132.059,0C131.965,0 131.877,0.074 131.86,0.166L131.783,0.594C131.766,0.686 131.828,0.76 131.921,0.76L132.745,0.76C132.764,0.76 132.776,0.775 132.773,0.793L132.406,2.819C132.39,2.91 132.452,2.984 132.545,2.984L133.108,2.984C133.201,2.984 133.29,2.91 133.307,2.819L133.673,0.793C133.676,0.775 133.694,0.76 133.713,0.76L134.536,0.76C134.629,0.76 134.718,0.686 134.735,0.594L134.812,0.166C134.828,0.074 134.767,0 134.674,0Z"/><path d="M135.278,0.002C135.185,0.002 135.096,0.076 135.079,0.167L134.6,2.819C134.583,2.91 134.646,2.984 134.739,2.984L135.247,2.984C135.34,2.984 135.429,2.91 135.446,2.819L135.636,1.763L135.985,2.888C136.002,2.947 136.055,2.984 136.121,2.984L136.794,2.984C136.86,2.984 136.926,2.947 136.964,2.888L137.72,1.758L137.528,2.819C137.512,2.91 137.574,2.984 137.667,2.984L138.176,2.984C138.269,2.984 138.358,2.91 138.374,2.819L138.853,0.167C138.87,0.076 138.808,0.002 138.715,0.002L138.062,0.002C137.997,0.002 137.93,0.039 137.892,0.098L136.652,1.957C136.633,1.987 136.586,1.979 136.575,1.944L136.066,0.098C136.049,0.039 135.996,0.002 135.93,0.002L135.278,0.002Z"/></svg>
