<svg xmlns="http://www.w3.org/2000/svg" viewBox="0 0 512 512"><path d="M140,0L372,0C448.802,-0 512,63.198 512,140L512,372C512,448.802 448.802,512 372,512L140,512C102.884,512 67.25,497.24 41.005,470.995C14.76,444.75 0,409.116 0,372L0,140C0,102.884 14.76,67.25 41.005,41.005C67.25,14.76 102.884,-0 140,0ZM95.229,352.692L216.707,174.55L194.771,159.592L73.293,337.734L95.229,352.692ZM313.629,200.824L417.293,352.262L439.083,337.346L324.501,169.963C322.038,166.363 317.957,164.213 313.595,164.217C309.235,164.222 305.155,166.379 302.699,169.982L188.383,337.628L210.199,352.505L313.629,200.824Z"/></svg>
