<svg xmlns="http://www.w3.org/2000/svg" viewBox="0 0 512 110"><path d="M34.909,24.312C26.31,25.666 23.469,33.196 23.5,41.276C23.563,60.639 23.578,80.68 23.547,101.398C23.547,101.683 23.308,101.918 23.017,101.918C23.017,101.918 8.565,101.918 8.565,101.918C8.3,101.918 8.081,101.697 8.081,101.429C8.081,101.424 8.081,101.419 8.081,101.414C8.206,84.476 8.18,65.853 8.003,45.544C7.941,37.553 8.732,31.395 10.376,27.068C13.507,18.878 19.157,13.276 27.324,10.262C31.402,8.76 37.676,8.02 46.145,8.041C85.504,8.146 124.301,8.177 162.536,8.135C162.848,8.135 163.004,8.288 163.004,8.592L162.989,23.43C162.989,23.619 162.895,23.713 162.708,23.713C123.619,23.734 84.141,23.719 44.272,23.666C40.797,23.666 37.676,23.881 34.909,24.312Z" style="fill-rule:nonzero;"/><path d="M201.77,56.539C197.775,58.413 194.154,62.65 194.107,67.454C193.993,78.554 193.977,89.821 194.061,101.256C194.071,101.697 193.858,101.918 193.421,101.918L179.391,101.918C178.881,101.918 178.626,101.66 178.626,101.146C178.657,91.349 178.626,80.927 178.532,69.88C178.439,57.452 183.152,48.443 194.31,43.197C215.972,33.012 238.216,22.511 261.043,11.695C271.889,6.56 284.233,8.372 295.751,8.088C302.742,7.92 308.345,8.461 312.559,9.711C321.517,12.388 327.759,18.263 331.286,27.336C332.93,31.547 333.7,38.682 333.596,48.742C333.419,66.383 333.409,83.94 333.565,101.414C333.575,101.75 333.414,101.918 333.081,101.918L318.38,101.902C318.151,101.902 318.031,101.786 318.021,101.555C317.917,82.875 317.943,62.897 318.099,41.622C318.177,31.542 313.963,24.028 303.101,23.839C295.548,23.703 288.046,23.666 280.597,23.729C274.781,23.782 269.413,24.958 264.491,27.257C244.141,36.761 223.234,46.521 201.77,56.539Z" style="fill-rule:nonzero;"/><path d="M481.433,23.792C472.319,23.902 464.391,27.777 458.04,34.172C440.467,51.845 423.222,69.271 406.305,86.45C395.318,97.618 382.818,102.343 367.071,101.981C361.005,101.844 355.184,101.834 349.608,101.949C349.285,101.96 349.124,101.802 349.124,101.477L349.155,86.655C349.155,86.424 349.27,86.308 349.499,86.308C356.771,86.319 363.872,86.314 370.801,86.293C380.029,86.272 388.004,82.89 394.725,76.149C411.819,59.001 429.075,41.554 446.491,23.808C457.369,12.735 469.869,7.663 485.663,8.088C491.302,8.246 497.107,8.251 503.079,8.104C503.672,8.093 503.974,8.387 503.984,8.986L504,23.083C504,23.514 503.787,23.729 503.36,23.729C496.015,23.687 488.706,23.708 481.433,23.792Z" style="fill-rule:nonzero;"/></svg>
