<?xml version="1.0" encoding="UTF-8" standalone="no"?>
<!DOCTYPE svg PUBLIC "-//W3C//DTD SVG 1.1//EN" "http://www.w3.org/Graphics/SVG/1.1/DTD/svg11.dtd">
<svg width="100%" height="100%" viewBox="0 0 512 512" version="1.1" xmlns="http://www.w3.org/2000/svg" xmlns:xlink="http://www.w3.org/1999/xlink" xml:space="preserve" xmlns:serif="http://www.serif.com/" style="fill-rule:evenodd;clip-rule:evenodd;stroke-linejoin:round;stroke-miterlimit:2;">
    <path d="M489.356,232.633C487.361,232.386 487.373,232.392 487.201,232.366C478.579,231.088 477.505,233.893 475.93,232.242C475.548,231.84 475.295,231.576 474.633,225.436C473.644,216.278 469.775,200.524 469.55,199.712C464.878,182.801 460.818,173.343 460.664,172.931C459.035,168.576 450.352,150.378 447.923,146.436C439.334,132.498 439.721,132.252 434.459,125.369C426.638,115.139 426.976,114.877 422.816,110.378C417.088,104.184 410.85,96.764 405.443,92.103C397.037,84.858 395.096,82.399 389.932,78.702C379.075,70.929 379.432,70.435 373.626,66.981C366.008,62.448 359.26,57.857 352.408,54.766C345.615,51.702 309.216,30.553 250.941,29.904C215.088,29.504 183.32,39.069 170.755,43.911C157.669,48.954 156.321,50.052 152.906,51.642C138.029,58.567 136.799,60.034 128.408,65.032C118.597,70.877 117.283,72.685 109.445,78.361C103.128,82.936 100.514,85.696 96.827,89.097C90.38,95.042 90.288,94.921 89.729,95.437C89.412,95.731 89.425,95.737 79.586,106.41C70.423,116.348 70.001,118.244 62.815,127.498C59.496,131.771 49.12,149.564 49.12,149.565C41.769,164.721 37.023,173.412 31.502,191.999C30.521,195.304 25.1,213.556 23.067,234.259C16.275,303.421 42.001,350.202 44.554,355.881C49.467,366.808 49.864,366.594 56.052,376.865C56.422,377.479 60.222,383.787 60.72,384.514C60.96,384.864 72.967,400.967 73.524,401.641C78.512,407.687 80.383,408.023 79.437,410.495C79.416,410.551 75.395,416.33 71.76,420.678C67.809,416.02 67.613,416.228 63.601,411.589C61.93,409.658 57.994,404.201 56.849,402.713C47.735,390.87 45.28,386.065 44.569,384.872C40.844,378.623 37.403,373.421 35.951,370.218C29.723,356.482 27.773,355.886 19.878,332.503C8.153,297.775 1.954,246.382 16.399,194.055C17.149,191.336 22.043,173.61 28.168,160.824C35.169,146.209 37.06,142.108 40.636,136.447C43.02,132.673 46.161,127.307 47.722,124.867C48.416,123.782 51.225,119.391 57.127,111.808C57.434,111.414 59.975,108.148 60.912,106.844C61.619,105.861 63.298,103.524 70.751,95.337C77.917,87.466 77.93,87.489 85.753,80.26C88.654,77.579 88.673,77.628 91.586,74.972C99.127,68.094 99.498,68.568 109.617,60.758C110.633,59.974 114.51,56.981 123.006,51.938C132.39,46.369 132.246,46.149 138.146,43.281C150.674,37.192 150.57,37.011 161.714,32.45C172.601,27.995 187.773,23.826 190.635,23.191C196.598,21.867 229.208,12.838 273.205,17.164C276.544,17.493 295.811,19.387 314.431,24.88C326.266,28.372 326.286,28.292 337.812,32.719C348.621,36.869 351.489,39.053 359.108,42.482C366.291,45.714 384.204,56.947 387.045,59.144C393.05,63.789 400.442,68.749 405.932,73.731C420.716,87.147 420.656,87.205 422.621,89.377C433.169,101.043 433.365,100.863 437.331,105.936C437.682,106.386 440.618,110.142 441.61,111.645C444.781,116.448 446.353,116.739 453.938,129.448C458.412,136.944 461.363,141.142 463.696,146.318C464.486,148.07 470.974,161.243 472.079,163.9C478.977,180.494 481.294,190.068 482.512,194.259C486.5,207.988 489.31,228.165 489.454,230.962C489.482,231.519 489.327,232.076 489.356,232.633Z" style="fill-opacity:1;"/>
    <path d="M489.383,279.587C489.422,280.418 489.855,280.292 489.894,281.122C489.903,281.303 489.876,281.291 489.562,283.364C488.862,287.998 489.043,288.001 488.591,291.187C486.848,303.46 484.289,313.717 483.806,315.652C477.452,341.115 469.875,355.842 465.662,364.527C460.228,375.728 459.837,375.496 453.691,385.829C448.952,393.794 448.643,393.569 443.251,401.115C440.516,404.943 440.292,404.745 437.56,408.547C433.592,414.068 433.123,413.654 429.759,417.543C420.198,428.598 419.918,428.321 409.14,438.201C400.251,446.349 399.933,445.93 393.74,450.719C385.399,457.169 383.196,458.479 382.218,459.06C368.755,467.065 365.674,469.457 357.984,472.928C353.32,475.034 346.184,479.15 333.383,483.898C276.065,505.154 221.371,500.619 183.953,489.894C163.796,484.116 154.951,479.812 137.432,471.313C131.499,468.435 122.15,462.232 119.337,460.679C113.943,457.703 108.156,452.883 101.441,448.031C102.347,447.621 107.128,445.456 112.889,443.183C116.903,441.599 117.182,442.251 120.6,444.862C123.628,447.175 135.563,454.104 139.281,456.425C142.521,458.447 160.962,467.126 163.039,467.953C191.097,479.121 207.436,481.108 219.703,482.998C230.996,484.738 251.126,485.289 262.108,484.534C273.491,483.751 292.914,482.673 321.301,473.275C339.672,467.193 345.222,463.302 353.529,459.559C356.375,458.276 356.397,458.313 375.508,446.774C376.624,446.1 393.228,433.707 394.57,432.532C407.649,421.077 410.627,417.81 411.903,416.41C424.843,402.21 424.959,402.31 426.589,400.039C435.442,387.707 436.059,388.071 440.608,380.434C444.502,373.898 449.052,366.909 450.539,363.644C454.616,354.684 461.894,342.875 468.718,318.022C477.016,287.797 474.044,280.15 477.163,279.603C479.545,279.185 479.604,281.492 489.383,279.587Z" style="fill-opacity:1;"/>
    <path d="M465.45,236.493C465.336,232.598 465.1,232.637 464.642,228.776C463.009,214.977 461.142,209.693 458.979,200.969C456.14,189.52 455.606,189.484 452.017,179.53C447.446,166.851 446.595,167.228 441.615,156.245C439.966,152.608 436.318,147.105 432.525,140.737C427.492,132.288 424.097,128.732 421.993,125.8C416.186,117.71 415.99,117.891 409.284,110.52C401.311,101.757 401.117,101.976 392.394,93.974C383.875,86.16 382.88,86.253 375.654,80.649C369.168,75.62 364.312,73.128 362.721,72.154C353.75,66.658 353.821,66.56 344.358,61.97C333.081,56.5 333.025,56.644 321.267,52.319C308.659,47.682 308.452,48.412 295.498,44.89C288.265,42.923 271.765,40.944 270.954,40.882C251.045,39.349 242.857,39.585 227.478,40.96C224.151,41.258 224.186,41.381 220.877,41.776C206.831,43.454 201.659,45.315 193.069,47.443C182.27,50.118 182.429,50.588 173.939,53.521C161.164,57.935 154.876,61.835 148.342,64.803C146.672,65.562 145.822,65.948 128.588,76.454C128.312,76.623 112.585,88.144 110.243,90.246C92.086,106.531 92.508,106.931 92.418,107.029C78.715,121.868 79.21,122.264 76.082,126.302C67.632,137.209 68.064,137.495 60.876,149.254C58.514,153.119 58.511,153.1 56.494,157.166C51.396,167.444 51.517,167.492 51.06,168.378C48.789,172.772 48.522,173.972 44.413,185.151C39.777,197.762 40.507,197.969 36.985,210.919C35.015,218.164 33.038,234.665 32.977,235.463C31.444,255.37 31.683,263.585 33.055,278.937C33.352,282.252 33.476,282.217 33.873,285.537C34.417,290.096 34.495,290.057 35.252,294.584C36.462,301.824 36.633,301.763 38.396,308.892C42.579,325.815 43.385,326.172 45.304,331.467C49.581,343.263 49.686,343.213 55.152,354.494C59.925,364.345 60.343,364.095 67.622,376.171C71.192,382.093 77.488,389.698 79.865,392.98C84.995,400.063 87.533,400.142 85.201,402.956C83.711,404.753 82.728,403.479 82.265,402.989C75.604,395.942 76.094,395.546 68.463,385.643C67.363,384.216 64.648,380.692 56.308,366.678C53.116,361.313 45.963,346.675 43.507,340.233C37.672,324.932 36.914,321.883 36.505,320.238C34.915,313.844 31.968,303.421 31.035,297.899C27.262,275.566 27.131,266.715 27.509,247.667C27.686,238.723 29.891,222.787 30.041,222.011C32.881,207.387 32.941,207.418 36.762,193.022C37.633,189.74 44.664,171.038 44.763,170.793C45.163,169.81 53.589,152.39 53.832,151.927C54.635,150.4 64.355,134.31 65.569,132.648C72.482,123.182 72.602,123.291 73.195,122.464C78.028,115.727 78.154,115.842 83.308,110.198C83.478,110.012 85.432,107.872 85.432,107.872C92.921,99.188 93.21,99.49 101.658,91.736C110.067,84.018 110.315,84.344 115.069,80.659C115.93,79.992 123.804,73.89 126.031,72.596C132.286,68.962 139.63,63.831 147.161,60.206C162.218,52.958 162.146,52.832 170.825,49.695C180.645,46.145 180.513,45.784 190.629,43.269C195.296,42.109 217.058,35.105 249.812,35.223C262.137,35.267 262.119,35.427 274.394,36.607C277.157,36.872 277.109,37.066 279.866,37.364C294.269,38.922 316.384,45.568 317.755,46.085C324.851,48.761 333.495,51.639 336.963,53.302C352.379,60.691 352.708,60.664 357.117,63.287C358.417,64.059 371.234,71.681 373.279,73.08C373.819,73.449 387.764,83.885 387.911,83.999C391.645,86.893 391.58,86.947 395.063,90.147C395.342,90.402 398.396,93.207 398.546,93.337C407.247,100.809 406.931,101.116 414.685,109.562C422.611,118.193 422.265,118.466 425.762,122.973C434.679,134.467 434.142,134.813 441.866,147.169C446.288,154.243 447.953,158.933 450.949,164.965C456.078,175.296 455.372,175.571 459.496,186.332C462.096,193.115 467.94,215.255 469.056,226.553C469.572,231.775 471.124,234.747 468.684,237.023C468.556,237.142 467.09,238.509 467.071,238.506C466.724,238.455 465.451,237.669 465.427,237.559C465.349,237.212 465.528,236.84 465.45,236.493Z"/>
    <path d="M283.105,154.209C288.918,159.916 289.097,160.301 289.408,160.972C289.888,162.007 290.016,162.284 289.796,175.225C289.732,179.034 288.756,179.33 283.631,184.513C280.574,187.604 280.161,187.347 272.109,187.293C269.558,187.276 267.342,186.927 267.074,187.793C266.717,188.944 268.198,189.879 272.846,194.54C274.091,195.788 287.617,209.354 288.332,210.207C289.652,211.783 290.82,215.989 287.705,216.363C284.531,216.743 283.471,215.652 283.214,215.389C282.857,215.021 283.31,214.647 278.608,209.976C259.051,190.55 259.178,190.445 257.394,188.847C255.544,187.191 254.854,187.274 249.815,187.305C246.297,187.326 246.42,188.435 246.421,191.948C246.429,214.157 246.736,214.834 245.758,215.788C245.147,216.384 245.102,216.325 244.235,216.373C240.76,216.564 239.659,216.623 239.643,213.129C239.53,189.837 239.627,159.799 239.642,155.161C239.653,151.664 240.751,151.775 244.243,151.771C276.049,151.728 276.051,151.531 278.796,151.853C280.73,152.079 281.421,152.652 283.105,154.209ZM279.924,178.581C283.215,175.289 282.966,174.779 282.993,172.994C283.108,165.217 282.861,164.557 282.605,163.873C282.468,163.505 282.26,162.95 279.442,160.118C278.198,158.868 276.81,158.676 276.553,158.641C274.434,158.347 274.428,158.487 249.817,158.542C245.745,158.551 246.418,160.269 246.431,165.196C246.468,178.919 246.217,179.178 247.287,180.08C247.926,180.619 248.04,180.504 267.652,180.506C277.133,180.507 277.449,180.819 279.924,178.581Z"/>
    <path d="M465.533,278.853C465.644,276.708 465.612,276.718 465.653,276.537C465.977,275.121 467.014,274.773 467.195,274.712C468.247,274.359 469.617,276.229 469.763,276.428C470.464,277.385 470.542,277.543 468.656,291.215C467.916,296.584 465.73,305.633 465.43,306.876C460.638,326.715 458.767,329.666 456.221,336.924C452.92,346.333 450.69,349.635 448.38,354.76C443.487,365.618 437.392,374.232 433.824,380.378C432.914,381.946 420.791,397.962 420.519,398.286C420.343,398.494 407.505,412.806 405.623,414.616C404.777,415.43 390.025,428.778 389.884,428.882C383.293,433.758 383.283,433.733 382.72,434.169C370.436,443.674 369.259,443.496 362.204,447.995C357.852,450.77 357.599,451.1 338.801,460.179C332.837,463.06 315.224,469.101 314.42,469.331C311.312,470.222 306.812,471.294 305.527,471.639C295.048,474.454 295.048,474.367 284.406,476.362C280.452,477.103 265.466,478.65 260.99,478.84C224.965,480.365 202.188,473.959 199.538,473.319C179.823,468.557 176.786,466.707 167.175,463.24C164.528,462.285 164.454,462.458 148.502,454.754C137.703,449.538 132.567,445.413 126.023,441.733C123.617,440.38 122.369,439.22 124.922,438.206C126.392,437.622 126.428,437.808 127.184,437.608C127.602,437.742 128.062,437.708 128.48,437.842C128.937,437.989 128.898,438.067 133.645,440.893C136.03,442.313 144.606,447.814 148.344,449.506C156.02,452.982 159.626,455.622 171.964,460.087C172.838,460.404 180.592,463.209 182.886,464.058C186.148,465.264 205.066,469.945 206.423,470.212C213.537,471.61 213.555,471.469 214.173,471.592C218.544,472.463 218.574,472.163 221.972,472.68C222.418,472.748 226.232,473.327 227.565,473.43C252.297,475.33 262.334,474.436 278.743,472.419C283.294,471.86 283.243,471.66 287.79,471.018C292.104,470.409 311.705,465.51 316.609,463.686C317.431,463.381 323.295,461.2 326.888,459.905C339.618,455.316 339.239,454.461 350.173,449.503C353.087,448.182 369.424,438.435 373.688,435.131C376.829,432.698 385.985,426.12 388.275,424.065C402.016,411.734 403.292,410.36 404.495,409.065C405.058,408.459 417.26,395.01 417.666,394.453C427.068,381.552 427.508,381.871 431.725,374.882C437.965,364.542 438.26,364.72 442.021,357.145C450.163,340.745 449.884,340.637 454.102,329.161C457.943,318.711 457.553,318.602 460.38,307.842C460.978,305.563 463.962,294.204 465.533,278.853Z"/>
    <path d="M221.829,239.915C221.321,240.331 221.651,240.726 219.958,241.447C219.811,241.509 219.676,241.599 219.528,241.658C218.242,242.171 210.112,245.417 207.911,254.48C205.374,264.927 210.853,270.881 212.555,272.664C219.007,279.426 223.387,276.892 221.842,279.938C221.807,280.008 216.687,285.292 209.563,287.379C205.279,288.635 205.244,288.494 200.768,288.512C199.683,288.516 193.495,288.54 187.623,285.175C165.235,272.344 168.599,241.012 191.671,232.701C207.317,227.064 219.979,237.344 221.442,239.169C221.617,239.388 221.654,239.696 221.829,239.915Z"/>
    <path d="M222.934,369.8C226.236,369.042 228.459,368.171 234.138,369.493C235.435,369.795 243.099,371.579 247.697,379.142C254.991,391.141 248.707,401.853 245.718,405.169C232.515,419.819 213.555,410.863 209.46,400.501C208.369,397.742 206.174,393.081 207.476,387.02C210.322,373.774 219.858,370.863 222.934,369.8Z"/>
    <path d="M298.892,399.786C300.013,399.815 302.873,399.684 305.553,400.392C311.715,402.021 314.172,405.076 315.355,406.189C316.201,406.985 321.026,411.525 321.533,419.316C322.749,438.008 301.114,448.625 287.433,437.54C275.798,428.113 279.028,414.654 282.926,409.09C288.882,400.586 296.336,400.195 298.892,399.786Z"/>
    <path d="M463.224,252.228C463.227,252.217 464.09,246.082 469.486,241.069C474.433,236.473 479.645,235.919 480.625,235.814C503.355,233.398 512.179,261.481 494.971,273.198C487.399,278.353 477.896,277.407 471.788,273.105C460.887,265.428 463.041,253.908 463.224,252.228Z"/>
    <path d="M52.511,439.061C53.021,439.094 63.637,438.595 70.127,449.553C71.051,451.113 72.728,456.311 72.584,459.47C71.974,472.86 61.046,479.896 51.409,479.347C34.198,478.367 26.921,458.644 36.487,446.876C42.339,439.676 48.544,439.286 52.511,439.061Z"/>
    <path d="M346.523,155.159C346.699,153.253 346.267,153.048 347.192,152.267C347.442,152.056 348.044,151.547 351.259,151.788C353.173,151.931 353.314,153.818 353.332,154.064C353.335,154.1 353.339,193.682 353.336,197.521C353.321,214.694 353.495,214.882 352.676,215.688C351.775,216.576 348.229,216.375 347.56,215.904C346.248,214.98 346.533,214.733 346.522,213.132C346.439,201.215 346.983,199.646 345.52,197.654C345.12,197.109 314.951,166.85 312.375,163.899C310.928,162.242 309.853,162.983 309.963,165.192C310.158,169.1 310.118,169.08 310.127,201.98C310.13,214.693 310.316,214.945 309.241,215.827C308.453,216.472 304.861,216.451 304.085,215.84C302.88,214.889 303.18,214.671 303.17,213.129C303.165,212.444 303.164,154.222 303.176,154.034C303.291,152.137 304.438,151.825 305.549,151.775C308.128,151.657 310.109,151.701 311.865,153.342C313.575,154.941 336.472,177.938 338.607,180.082C344.239,185.74 344.014,185.957 344.578,186.359C344.735,186.471 346.703,187.877 346.712,185.247C346.719,182.84 346.522,182.866 346.523,155.159Z"/>
    <path d="M370.207,202.357C371.629,202.594 372.27,201.77 373.718,204.116C373.947,204.487 374.983,206.167 377.301,208.221C379.128,209.839 379.78,209.56 392.5,209.561C404.149,209.562 404.489,209.884 406.355,208.025C408.598,205.792 409.944,204.431 409.674,201.93C409.394,199.337 408.416,199.829 394.531,190.015C384.04,182.602 383.834,182.943 373.345,175.531C368.519,172.121 367.162,172.246 367.123,167.423C367.082,162.398 366.878,161.16 369.274,158.685C369.711,158.233 373.859,153.947 374.852,153.156C376.818,151.588 377.046,151.768 393.615,151.768C407.334,151.768 407.756,151.437 410.383,154.001C410.786,154.395 414.858,158.37 415.385,158.974C417.401,161.285 417.089,164.873 416.017,165.371C415.326,165.692 412.833,165.673 412.555,165.67C410.653,165.655 410.38,165.687 409.633,163.921C409.479,163.555 408.795,161.938 406.672,159.943C404.71,158.1 404.41,158.413 394.73,158.414C379.905,158.414 379.53,158.042 377.366,160.108C375.449,161.937 372.92,164.301 374.468,167.547C375.025,168.718 387.31,176.605 392.247,180.061C406.041,189.717 414.269,194.762 415.75,196.534C417.192,198.259 416.767,205.077 416.263,206.57C416.016,207.303 415.675,208.313 410.159,214.073C407.419,216.933 406.921,216.518 393.615,216.518C376.87,216.518 376.504,216.814 374.231,214.707C367.47,208.442 367.179,207.269 366.967,206.413C365.793,201.686 369.514,202.389 370.207,202.357Z"/>
    <path d="M349.026,254.977C350.099,254.94 350.082,254.902 351.258,254.901C411.555,254.831 456.346,254.698 457.125,254.732C459.917,254.854 460.386,258.777 457.186,259.105C456.475,259.178 251.234,259.366 248.693,259.345C247.568,259.336 245.929,259.517 245.709,257.635C245.396,254.956 246.539,255.19 248.699,255.179C256.725,255.141 338.444,254.754 349.026,254.977Z"/>
    <path d="M93.312,404.518C86.52,413.011 86.786,413.211 86.184,413.939C83.001,417.787 80.14,421.81 74.628,429.239C67.643,438.653 66.696,440.041 65.824,440.202C65.641,440.236 63.636,439.47 63.06,439.01C62.268,438.379 62.726,437.407 62.785,437.28C63.254,436.286 78.739,416.522 82.815,410.588C85.709,406.373 86.07,406.675 88.128,403.694C88.676,402.902 91.993,398.098 95.206,393.956C102.045,385.141 101.792,384.973 108.613,376.144C112.833,370.684 118.576,362.907 118.669,362.785C125.462,353.942 125.294,353.839 132.075,344.974C143.533,329.997 153.785,316.101 155.984,313.3C156.004,313.274 169.09,295.872 169.392,295.488C172.319,291.756 177.519,284.186 178.622,283.893C179.187,283.742 182.387,284.824 180.516,287.686C179.232,289.652 168.274,304.127 167.198,305.548C166.122,306.97 158.058,317.621 153.854,323.406C151.287,326.939 96.792,399.648 93.312,404.518Z"/>
    <path d="M225.318,276.175C224.921,276.097 224.517,276.061 224.12,275.982C213.153,273.821 207.183,263.019 211.395,253.034C215.336,243.689 225.247,242.832 226.407,242.835C235.491,242.859 241.795,250.254 242.615,255.643C243.337,260.393 243.54,266.105 237.961,271.509C232.865,276.444 227.388,276.165 225.318,276.175Z"/>
    <path d="M179.442,407.824C181.25,407.083 197.427,400.46 202.078,398.655C204.395,397.756 205.158,397.076 206.063,399.408C206.736,401.14 206.753,401.532 205.084,402.332C204.736,402.498 132.969,432.125 131.631,432.655C118.342,437.913 118.44,438.125 117.28,438.568C98.809,445.623 77.272,455.497 75.873,455.302C74.808,455.154 73.325,451.58 74.62,450.358C75.537,449.493 103.594,438.784 107.109,437.114C113.184,434.229 113.419,434.834 119.536,431.989C120.835,431.384 175.176,409.522 179.442,407.824Z"/>
    <path d="M355.037,372.519C354.919,374.461 355.073,375.874 353.411,379.173C349.468,387 337.053,390.071 329.864,380.472C324.348,373.106 328.609,360.137 340.089,358.936C346.067,358.31 349.598,361.814 350.205,362.417C353.706,365.892 354.539,367.273 355.037,372.519Z"/>
    <path d="M426.29,299.385C426.977,298.817 427.059,298.934 434.973,292.409C436.789,290.912 451.138,279.079 457.849,273.917C460.369,271.979 462.548,269.13 464.179,270.751C466.155,272.715 462.451,274.642 453.629,282.014C452.901,282.622 446.591,287.894 444.488,289.547C437.754,294.837 361.184,357.616 355.93,361.716C353.771,363.401 352.453,360.49 352.43,360.264C352.31,359.09 354.131,357.985 358.031,354.797C369.331,345.561 369.359,345.625 370.336,344.818C374.036,341.76 420.819,303.971 426.29,299.385Z"/>
    <path d="M126.048,174.709C126.715,174.717 130.15,174.249 133.652,176.683C135.979,178.3 138.066,181.436 138.324,181.928C144.538,193.8 127.898,206.772 117.8,195.724C110.951,188.229 115.772,179.774 119.338,177.377C123.538,174.554 123.982,174.992 126.048,174.709Z"/>
    <path d="M172.919,65.529C173.434,65.589 175.612,65.363 179.225,67.628C183.756,70.469 187.554,83.059 175.077,86.939C169.84,88.568 162.436,84.549 161.88,77.126C161.437,71.221 166.122,66.077 171.737,65.563C172.13,65.527 172.526,65.565 172.919,65.529Z"/>
    <path d="M199.681,120.159C199.983,120.194 202.354,119.981 205.959,122.263C210.059,124.858 213.311,134.952 205.009,140.332C204.447,140.696 195.898,144.831 190.744,137.323C189.658,135.742 187.819,133.892 188.83,128.48C189.757,123.519 194.311,121.56 195.009,121.259C197.969,119.986 198.04,120.283 199.681,120.159Z"/>
    <path d="M198.024,191.947C198.029,188.38 198.083,150.459 198.123,147.352C198.148,145.452 197.88,144.873 199.749,144.572C201.827,144.237 202.077,145.986 202.109,146.214C202.174,146.671 201.844,224.928 201.798,225.379C201.773,225.618 201.572,227.58 199.661,227.492C197.416,227.388 197.906,223.599 197.911,219.816C197.93,205.876 198.005,205.903 198.024,191.947Z"/>
    <path d="M78.983,428.062C79.54,427.279 85.157,419.377 86.138,418.417C87.851,416.74 89.103,418.816 94.121,423.408C98.222,427.161 98.297,427.048 102.389,430.811C102.973,431.348 102.953,431.338 103.552,431.874C105.393,433.52 105.337,433.576 105.348,433.688C105.491,435.2 104.979,435.054 103.6,435.642C98.191,437.951 92.445,440.019 91.465,440.372C91.126,439.903 91.391,439.701 88.985,437.512C81.555,430.75 81.389,430.917 78.983,428.062Z"/>
    <path d="M164.909,154.917C166.259,153.863 176.832,145.609 181.874,141.859C184.918,139.594 187.476,136.778 188.791,139.396C189.582,140.974 189.156,141.139 187.775,142.241C180.804,147.8 162.452,161.87 160.241,163.565C159.024,164.498 145.49,174.875 145.013,175.201C142.123,177.173 140.261,180.019 138.496,177.372C137.765,176.275 138.388,175.471 138.488,175.343C138.915,174.792 163.435,156.086 164.909,154.917Z"/>
    <path d="M108.447,422.465C113.987,427.557 116.494,428.404 116.556,429.219C116.683,430.901 114.063,431.326 113.786,431.371C111.886,431.679 111.577,431.609 100.493,421.517C97.327,418.635 91.54,413.679 91.343,412.703C91.202,412.001 92.458,407.597 95.078,410.19C99.428,414.495 99.569,414.32 108.447,422.465Z"/>
    <path d="M187.675,111.551C178.513,93.044 178.482,93.086 177.702,91.471C176.142,88.24 180.04,88.25 180.46,88.583C180.952,88.972 181.627,90.53 193.2,113.804C194.702,116.825 196.122,118.05 192.897,119.054C191.271,119.56 190.48,117.172 187.675,111.551Z"/>
    <path d="M277.313,411.967C277.321,412 277.925,412.673 277.755,413.777C277.72,413.999 277.422,415.922 275.593,415.564C275.542,415.554 265.41,410.439 264.525,409.992C254.117,404.737 253.098,404.168 252.124,403.625C251.443,403.245 251.28,403.302 251.206,402.517C251.181,402.254 250.962,399.919 253.197,399.891C253.829,399.883 273.548,409.981 277.313,411.967Z"/>
    <path d="M322.036,393.528C327.879,385.921 327.677,385.788 328.231,385.166C329.267,384.002 331.652,385.294 331.414,387.071C331.361,387.467 331.344,387.593 328.585,391.19C318.929,403.772 319.062,404.29 317.814,404.227C317.388,404.206 316.142,403.089 316.056,402.602C315.933,401.91 317.148,400.193 317.281,400.005C319.615,396.704 319.688,396.791 322.036,393.528Z"/>
</svg>
